<svg width="59" height="29" viewBox="0 0 59 29" fill="none" xmlns="http://www.w3.org/2000/svg">
<g filter="url(#filter0_f_75_5)">
<path d="M3.11206 5.60547V4.56773H2.07433V5.60547H3.11206ZM16.0379 5.60547H17.0756V4.56773H16.0379V5.60547ZM16.0379 7.77787V8.81561H17.0756V7.77787H16.0379ZM5.45343 7.77787V6.74014H4.4157V7.77787H5.45343ZM5.45343 13.1606H4.4157V14.1984H5.45343V13.1606ZM15.2413 13.1606H16.2791V12.1229H15.2413V13.1606ZM15.2413 15.2123V16.2501H16.2791V15.2123H15.2413ZM5.45343 15.2123V14.1746H4.4157V15.2123H5.45343ZM5.45343 21.2227H4.4157V22.2604H5.45343V21.2227ZM16.2189 21.2227H17.2566V20.1849H16.2189V21.2227ZM16.2189 23.3347V24.3725H17.2566V23.3347H16.2189ZM3.11206 23.3347H2.07433V24.3725H3.11206V23.3347ZM3.11206 6.6432H16.0379V4.56773H3.11206V6.6432ZM15.0001 5.60547V7.77787H17.0756V5.60547H15.0001ZM16.0379 6.74014H5.45343V8.81561H16.0379V6.74014ZM4.4157 7.77787V13.1606H6.49117V7.77787H4.4157ZM5.45343 14.1984H15.2413V12.1229H5.45343V14.1984ZM14.2036 13.1606V15.2123H16.2791V13.1606H14.2036ZM15.2413 14.1746H5.45343V16.2501H15.2413V14.1746ZM4.4157 15.2123V21.2227H6.49117V15.2123H4.4157ZM5.45343 22.2604H16.2189V20.1849H5.45343V22.2604ZM15.1812 21.2227V23.3347H17.2566V21.2227H15.1812ZM16.2189 22.297H3.11206V24.3725H16.2189V22.297ZM4.1498 23.3347V5.60547H2.07433V23.3347H4.1498ZM20.8896 23.3347V24.3725H21.4417L21.7502 23.9146L20.8896 23.3347ZM17.993 23.3347L17.1423 22.7404L16.0023 24.3725H17.993V23.3347ZM24.3413 14.2468L25.192 14.8411L25.6042 14.2511L25.196 13.6583L24.3413 14.2468ZM18.3913 5.60547V4.56773H16.4168L17.5366 6.19398L18.3913 5.60547ZM21.3965 5.60547L22.2597 5.02948L21.9516 4.56773H21.3965V5.60547ZM25.9223 12.3882L25.0591 12.9642L25.9258 14.2631L26.7877 12.961L25.9223 12.3882ZM30.412 5.60547V4.56773H29.8544L29.5466 5.03268L30.412 5.60547ZM33.2723 5.60547L34.127 6.19398L35.2468 4.56773H33.2723V5.60547ZM27.3223 14.2468L26.4676 13.6583L26.063 14.246L26.4668 14.8342L27.3223 14.2468ZM33.562 23.3347V24.3725H35.5332L34.4175 22.7473L33.562 23.3347ZM30.5809 23.3347L29.7131 23.9037L30.0204 24.3725H30.5809V23.3347ZM25.8016 16.0451L26.6695 15.4761L25.8135 14.1705L24.941 15.4652L25.8016 16.0451ZM20.8896 22.297H17.993V24.3725H20.8896V22.297ZM18.8438 23.929L25.192 14.8411L23.4906 13.6525L17.1423 22.7404L18.8438 23.929ZM25.196 13.6583L19.246 5.01695L17.5366 6.19398L23.4866 14.8353L25.196 13.6583ZM18.3913 6.6432H21.3965V4.56773H18.3913V6.6432ZM20.5333 6.18145L25.0591 12.9642L26.7855 11.8122L22.2597 5.02948L20.5333 6.18145ZM26.7877 12.961L31.2773 6.17825L29.5466 5.03268L25.057 11.8154L26.7877 12.961ZM30.412 6.6432H33.2723V4.56773H30.412V6.6432ZM32.4176 5.01695L26.4676 13.6583L28.177 14.8353L34.127 6.19398L32.4176 5.01695ZM26.4668 14.8342L32.7065 23.9221L34.4175 22.7473L28.1778 13.6594L26.4668 14.8342ZM33.562 22.297H30.5809V24.3725H33.562V22.297ZM31.4488 22.7657L26.6695 15.4761L24.9338 16.6141L29.7131 23.9037L31.4488 22.7657ZM24.941 15.4652L20.029 22.7548L21.7502 23.9146L26.6622 16.625L24.941 15.4652ZM36.3982 5.60547V4.56773H35.3604V5.60547H36.3982ZM38.824 5.60547H39.8617V4.56773H38.824V5.60547ZM38.824 23.3347V24.3725H39.8617V23.3347H38.824ZM36.3982 23.3347H35.3604V24.3725H36.3982V23.3347ZM36.3982 6.6432H38.824V4.56773H36.3982V6.6432ZM37.7863 5.60547V23.3347H39.8617V5.60547H37.7863ZM38.824 22.297H36.3982V24.3725H38.824V22.297ZM37.4359 23.3347V5.60547H35.3604V23.3347H37.4359ZM55.636 5.60547H56.6738V4.56773H55.636V5.60547ZM55.636 7.71753V8.75527H56.6738V7.71753H55.636ZM49.6619 7.71753V6.67979H48.6242V7.71753H49.6619ZM49.6619 23.3347V24.3725H50.6996V23.3347H49.6619ZM47.224 23.3347H46.1862V24.3725H47.224V23.3347ZM47.224 7.71753H48.2617V6.67979H47.224V7.71753ZM41.2499 7.71753H40.2121V8.75527H41.2499V7.71753ZM41.2499 5.60547V4.56773H40.2121V5.60547H41.2499ZM54.5983 5.60547V7.71753H56.6738V5.60547H54.5983ZM55.636 6.67979H49.6619V8.75527H55.636V6.67979ZM48.6242 7.71753V23.3347H50.6996V7.71753H48.6242ZM49.6619 22.297H47.224V24.3725H49.6619V22.297ZM48.2617 23.3347V7.71753H46.1862V23.3347H48.2617ZM47.224 6.67979H41.2499V8.75527H47.224V6.67979ZM42.2876 7.71753V5.60547H40.2121V7.71753H42.2876ZM41.2499 6.6432H55.636V4.56773H41.2499V6.6432Z" fill="#FF1616"/>
</g>
<path d="M3.11206 5.60547V4.98283H2.48942V5.60547H3.11206ZM16.0379 5.60547H16.6605V4.98283H16.0379V5.60547ZM16.0379 7.77787V8.40052H16.6605V7.77787H16.0379ZM5.45343 7.77787V7.15523H4.83079V7.77787H5.45343ZM5.45343 13.1606H4.83079V13.7833H5.45343V13.1606ZM15.2413 13.1606H15.864V12.538H15.2413V13.1606ZM15.2413 15.2123V15.835H15.864V15.2123H15.2413ZM5.45343 15.2123V14.5897H4.83079V15.2123H5.45343ZM5.45343 21.2227H4.83079V21.8453H5.45343V21.2227ZM16.2189 21.2227H16.8416V20.6H16.2189V21.2227ZM16.2189 23.3347V23.9574H16.8416V23.3347H16.2189ZM3.11206 23.3347H2.48942V23.9574H3.11206V23.3347ZM3.11206 6.22811H16.0379V4.98283H3.11206V6.22811ZM15.4152 5.60547V7.77787H16.6605V5.60547H15.4152ZM16.0379 7.15523H5.45343V8.40052H16.0379V7.15523ZM4.83079 7.77787V13.1606H6.07607V7.77787H4.83079ZM5.45343 13.7833H15.2413V12.538H5.45343V13.7833ZM14.6187 13.1606V15.2123H15.864V13.1606H14.6187ZM15.2413 14.5897H5.45343V15.835H15.2413V14.5897ZM4.83079 15.2123V21.2227H6.07607V15.2123H4.83079ZM5.45343 21.8453H16.2189V20.6H5.45343V21.8453ZM15.5963 21.2227V23.3347H16.8416V21.2227H15.5963ZM16.2189 22.7121H3.11206V23.9574H16.2189V22.7121ZM3.7347 23.3347V5.60547H2.48942V23.3347H3.7347ZM20.8896 23.3347V23.9574H21.2208L21.4059 23.6827L20.8896 23.3347ZM17.993 23.3347L17.4826 22.9782L16.7986 23.9574H17.993V23.3347ZM24.3413 14.2468L24.8517 14.6034L25.099 14.2494L24.8541 13.8937L24.3413 14.2468ZM18.3913 5.60547V4.98283H17.2066L17.8785 5.95858L18.3913 5.60547ZM21.3965 5.60547L21.9144 5.25988L21.7295 4.98283H21.3965V5.60547ZM25.9223 12.3882L25.4044 12.7338L25.9244 13.5131L26.4415 12.7319L25.9223 12.3882ZM30.412 5.60547V4.98283H30.0774L29.8928 5.2618L30.412 5.60547ZM33.2723 5.60547L33.7851 5.95858L34.457 4.98283H33.2723V5.60547ZM27.3223 14.2468L26.8095 13.8937L26.5667 14.2463L26.809 14.5992L27.3223 14.2468ZM33.562 23.3347V23.9574H34.7447L34.0753 22.9823L33.562 23.3347ZM30.5809 23.3347L30.0602 23.6761L30.2446 23.9574H30.5809V23.3347ZM25.8016 16.0451L26.3223 15.7037L25.8087 14.9203L25.2853 15.6971L25.8016 16.0451ZM20.8896 22.7121H17.993V23.9574H20.8896V22.7121ZM18.5035 23.6913L24.8517 14.6034L23.8309 13.8903L17.4826 22.9782L18.5035 23.6913ZM24.8541 13.8937L18.9041 5.25236L17.8785 5.95858L23.8285 14.5999L24.8541 13.8937ZM18.3913 6.22811H21.3965V4.98283H18.3913V6.22811ZM20.8786 5.95106L25.4044 12.7338L26.4403 12.0426L21.9144 5.25988L20.8786 5.95106ZM26.4415 12.7319L30.9312 5.94914L29.8928 5.2618L25.4031 12.0445L26.4415 12.7319ZM30.412 6.22811H33.2723V4.98283H30.412V6.22811ZM32.7595 5.25236L26.8095 13.8937L27.8352 14.5999L33.7851 5.95858L32.7595 5.25236ZM26.809 14.5992L33.0487 23.6871L34.0753 22.9823L27.8356 13.8944L26.809 14.5992ZM33.562 22.7121H30.5809V23.9574H33.562V22.7121ZM31.1016 22.9933L26.3223 15.7037L25.2809 16.3865L30.0602 23.6761L31.1016 22.9933ZM25.2853 15.6971L20.3732 22.9868L21.4059 23.6827L26.318 16.393L25.2853 15.6971ZM36.3982 5.60547V4.98283H35.7755V5.60547H36.3982ZM38.824 5.60547H39.4466V4.98283H38.824V5.60547ZM38.824 23.3347V23.9574H39.4466V23.3347H38.824ZM36.3982 23.3347H35.7755V23.9574H36.3982V23.3347ZM36.3982 6.22811H38.824V4.98283H36.3982V6.22811ZM38.2014 5.60547V23.3347H39.4466V5.60547H38.2014ZM38.824 22.7121H36.3982V23.9574H38.824V22.7121ZM37.0208 23.3347V5.60547H35.7755V23.3347H37.0208ZM55.636 5.60547H56.2587V4.98283H55.636V5.60547ZM55.636 7.71753V8.34017H56.2587V7.71753H55.636ZM49.6619 7.71753V7.09489H49.0393V7.71753H49.6619ZM49.6619 23.3347V23.9574H50.2845V23.3347H49.6619ZM47.224 23.3347H46.6013V23.9574H47.224V23.3347ZM47.224 7.71753H47.8466V7.09489H47.224V7.71753ZM41.2499 7.71753H40.6272V8.34017H41.2499V7.71753ZM41.2499 5.60547V4.98283H40.6272V5.60547H41.2499ZM55.0134 5.60547V7.71753H56.2587V5.60547H55.0134ZM55.636 7.09489H49.6619V8.34017H55.636V7.09489ZM49.0393 7.71753V23.3347H50.2845V7.71753H49.0393ZM49.6619 22.7121H47.224V23.9574H49.6619V22.7121ZM47.8466 23.3347V7.71753H46.6013V23.3347H47.8466ZM47.224 7.09489H41.2499V8.34017H47.224V7.09489ZM41.8725 7.71753V5.60547H40.6272V7.71753H41.8725ZM41.2499 6.22811H55.636V4.98283H41.2499V6.22811Z" fill="#FF7A7A"/>
<defs>
<filter id="filter0_f_75_5" x="-0.00114679" y="2.49226" width="58.7504" height="23.9557" filterUnits="userSpaceOnUse" color-interpolation-filters="sRGB">
<feFlood flood-opacity="0" result="BackgroundImageFix"/>
<feBlend mode="normal" in="SourceGraphic" in2="BackgroundImageFix" result="shape"/>
<feGaussianBlur stdDeviation="1.5566" result="effect1_foregroundBlur_75_5"/>
</filter>
</defs>
</svg>
