<svg width="132" height="112" viewBox="0 0 132 112" fill="none" xmlns="http://www.w3.org/2000/svg">
<path d="M57.6743 4.56003C61.3508 -1.52 70.1703 -1.52002 73.8468 4.56001L130.143 97.6608C133.951 103.959 129.416 112 122.057 112H9.46429C2.10467 112 -2.43007 103.959 1.37807 97.6608L57.6743 4.56003Z" fill="#FAFAFA"/>
<path d="M59.7057 10.6718C62.4666 6.13341 69.0545 6.1334 71.8154 10.6718L124.007 96.4636C126.88 101.187 123.48 107.234 117.952 107.234H13.5692C8.04095 107.234 4.64118 101.187 7.51437 96.4636L59.7057 10.6718Z" fill="url(#paint0_linear_88_54)"/>
<path d="M71.6335 40.5189L70.5518 80.2919H60.4005L59.2911 40.5189H71.6335ZM65.4762 98.0428C63.6456 98.0428 62.0739 97.3956 60.7611 96.1013C59.4483 94.7885 58.8011 93.2168 58.8196 91.3862C58.8011 89.5742 59.4483 88.021 60.7611 86.7266C62.0739 85.4323 63.6456 84.7851 65.4762 84.7851C67.2328 84.7851 68.7767 85.4323 70.108 86.7266C71.4393 88.021 72.1142 89.5742 72.1327 91.3862C72.1142 92.6066 71.7907 93.7253 71.162 94.7422C70.5518 95.7407 69.7475 96.5451 68.749 97.1553C67.7505 97.747 66.6595 98.0428 65.4762 98.0428Z" fill="#FAFAFA"/>
<defs>
<linearGradient id="paint0_linear_88_54" x1="11.728" y1="73.6644" x2="116.439" y2="72.2641" gradientUnits="userSpaceOnUse">
<stop stop-color="#B0251A"/>
<stop offset="0.666667" stop-color="#D6483C"/>
<stop offset="1" stop-color="#FB786E"/>
</linearGradient>
</defs>
</svg>
