<svg width="694" height="551" viewBox="0 0 694 551" fill="none" xmlns="http://www.w3.org/2000/svg">
<line x1="150.75" y1="57" x2="150.75" y2="415" stroke="black" stroke-width="1.5"/>
<line x1="210.75" y1="22" x2="210.75" y2="469" stroke="black" stroke-width="1.5"/>
<line x1="270.75" y1="-11" x2="270.75" y2="526" stroke="black" stroke-width="1.5"/>
<line x1="330.75" y1="-42" x2="330.75" y2="551" stroke="black" stroke-width="1.5"/>
<line x1="390.75" y1="-42" x2="390.75" y2="551" stroke="black" stroke-width="1.5"/>
<line x1="450.75" y1="-42" x2="450.75" y2="551" stroke="black" stroke-width="1.5"/>
<line x1="510.75" y1="-42" x2="510.75" y2="551" stroke="black" stroke-width="1.5"/>
<line x1="570.75" y1="-42" x2="570.75" y2="551" stroke="black" stroke-width="1.5"/>
<line x1="630.75" y1="-42" x2="630.75" y2="526" stroke="black" stroke-width="1.5"/>
<line x1="694" y1="22.75" x2="375" y2="22.75" stroke="black" stroke-width="1.5"/>
<line x1="694" y1="82.75" x2="239" y2="82.75" stroke="black" stroke-width="1.5"/>
<line x1="694" y1="142.75" x2="86" y2="142.75" stroke="black" stroke-width="1.5"/>
<line x1="694" y1="202.75" x2="-6.36386e-08" y2="202.75" stroke="black" stroke-width="1.5"/>
<line x1="694" y1="262.75" x2="86" y2="262.75" stroke="black" stroke-width="1.5"/>
<line x1="694" y1="322.75" x2="86" y2="322.75" stroke="black" stroke-width="1.5"/>
<line x1="694" y1="382.75" x2="86" y2="382.75" stroke="black" stroke-width="1.5"/>
<line x1="694" y1="442.75" x2="239" y2="442.75" stroke="black" stroke-width="1.5"/>
</svg>
