<?xml version="1.0" encoding="UTF-8"?><svg id="Surprise" xmlns="http://www.w3.org/2000/svg" viewBox="0 0 91.16565 91.84246"><defs><style>.cls-1{fill:#feddb9;}.cls-2{fill:#febf6b;}.cls-3{fill:#e0953b;}</style></defs><rect class="cls-2" x="17.486" y="24.50186" width="64.42112" height="45.67318"/><rect class="cls-2" x="12.91838" y="36.68224" width="53.5508" height="34.96896"/><rect class="cls-3" x="66.46918" y="36.68224" width="3.27172" height="34.96896" transform="translate(136.21008 108.33344) rotate(180)"/><rect class="cls-3" x="63.19745" y="33.02239" width="3.27172" height="7.48243" transform="translate(129.66663 73.52721) rotate(180)"/><rect class="cls-3" x="42.82761" y="40.2658" width="5.50509" height="65.32356" transform="translate(-27.34743 118.50775) rotate(-90)"/><rect class="cls-1" x="36.22799" y="9.71278" width="3.65985" height="50.27908" transform="translate(3.2056 72.91023) rotate(-90)"/><rect class="cls-1" x="14.89461" y="19.89597" width="3.65985" height="14.95635" transform="translate(33.44907 54.74828) rotate(180)"/><rect class="cls-1" x="26.44711" y="7.20122" width="3.73364" height="21.65586" transform="translate(10.28479 46.34308) rotate(-90)"/><rect class="cls-1" x="58.06141" y="5.21617" width="4.6059" height="33.96548" transform="translate(38.16544 82.56327) rotate(-90)"/><rect class="cls-3" x="39.14186" y="16.16233" width="4.23976" height="8.33954"/><rect class="cls-2" x="26.54521" y="11.90521" width="4.6059" height="20.5874" transform="translate(6.64925 51.04708) rotate(-90)"/><rect class="cls-1" x="9.25853" y="36.69471" width="3.65985" height="34.95649" transform="translate(22.17691 108.34591) rotate(180)"/></svg>