<?xml version="1.0" encoding="UTF-8"?><svg id="Surprise" xmlns="http://www.w3.org/2000/svg" viewBox="0 0 107.73866 108.5385"><defs><style>.cls-1{fill:#eec170;}.cls-2{fill:#e6a527;}.cls-3{fill:#951f3f;}.cls-4{fill:#bc294d;}.cls-5{fill:#d96c18;}.cls-6{fill:#df6179;}.cls-7{fill:#e38526;}.cls-8{fill:#d63b5c;}.cls-9{fill:#da691e;}.cls-10{fill:none;stroke:#000;stroke-miterlimit:10;stroke-width:1.96355px;}</style></defs><rect class="cls-5" x="52.34362" y="31.2716" width="3.05141" height="15.75549" transform="translate(14.71999 93.01867) rotate(-90)"/><rect class="cls-4" x="5.06756" y="39.89736" width="97.60353" height="65.32221"/><rect class="cls-6" x="99.47616" y="39.89736" width="3.19493" height="65.32221"/><rect class="cls-8" x="29.90038" y="42.94636" width="66.2823" height="26.70731"/><rect class="cls-8" x="29.90038" y="79.29399" width="66.2823" height="21.58314"/><rect class="cls-3" x="10.68963" y="39.89736" width="11.32566" height="65.32221"/><rect class="cls-3" x="5.06756" y="69.65367" width="23.22643" height="9.64033"/><rect class="cls-3" x="5.06756" y="33.30603" width="23.22643" height="9.64033" transform="translate(33.36156 76.25239) rotate(180)"/><rect class="cls-10" x="5.06756" y="39.89736" width="97.60353" height="65.32221"/><rect class="cls-7" x="20.42849" y="67.84082" width="66.88168" height="12.55013" transform="translate(127.98521 20.24656) rotate(90)"/><rect class="cls-5" x="48.47604" y="95.88837" width="10.78659" height="12.55013" transform="translate(156.03276 48.2941) rotate(90)"/><rect class="cls-2" x="49.76872" y="80.03986" width="11.12154" height="9.62981" transform="translate(140.18425 29.52528) rotate(90)"/><rect class="cls-2" x="44.79977" y="51.66354" width="21.05944" height="9.62981" transform="translate(111.80794 1.14896) rotate(90)"/><rect class="cls-1" x="25.38702" y="72.79935" width="66.88168" height="2.63307" transform="translate(132.94374 15.28803) rotate(90)"/><rect class="cls-10" x="20.42849" y="67.84082" width="66.88168" height="12.55013" transform="translate(127.98521 20.24656) rotate(90)"/><rect class="cls-7" x="2.58689" y="62.58091" width="102.56487" height="12.55013"/><rect class="cls-5" x="8.70641" y="62.58091" width="16.89722" height="12.55013"/><rect class="cls-2" x="32.78638" y="62.58091" width="66.68978" height="8.8545"/><rect class="cls-1" x="2.58689" y="62.58091" width="102.49073" height="2.56862"/><rect class="cls-10" x="2.58689" y="62.58091" width="102.56487" height="12.55013"/><polygon class="cls-9" points="86.9346 17.21422 91.80416 17.21422 91.80416 21.2297 60.83895 21.2297 60.83895 13.57181 68.14329 13.57181 68.14329 14.76961 72.75783 14.76961 72.75783 12.66859 84.67623 12.66859 84.67623 15.24084 86.9346 15.24084 86.9346 17.21422"/><polygon class="cls-9" points="102.68231 17.06692 102.68231 21.2297 97.47861 21.2297 97.47861 18.92249 99.85443 18.92249 99.85443 17.06692 102.68231 17.06692"/><polygon class="cls-7" points="99.85443 17.06692 99.85443 18.92249 97.47861 18.92249 97.47861 21.2297 91.80416 21.2297 91.80416 19.78299 86.9346 19.78299 86.9346 17.80962 84.67623 17.80962 84.67623 15.23737 74.90434 15.23737 74.90434 16.94915 72.75783 16.94915 72.75783 18.69566 68.14329 18.69566 68.14329 16.14059 60.83895 16.14059 60.83895 10.55781 65.32548 10.55781 65.32548 7.85793 71.39303 7.85793 71.39303 5.59003 77.90208 5.59003 77.90208 3.32208 83.09571 3.32208 83.09571 .98551 91.7941 .98551 91.7941 3.32208 94.49398 3.32208 94.49398 10.55781 96.69338 10.55781 96.69338 13.26746 99.75664 13.26746 99.75664 17.06692 99.85443 17.06692"/><polygon class="cls-2" points="91.79096 3.32109 87.37677 3.32109 87.37677 5.51053 77.90126 5.51053 77.90126 9.24571 68.44972 9.24571 68.44972 11.98313 71.05273 11.98313 71.05273 13.56945 74.17293 13.56945 74.17293 15.73133 76.4869 15.73133 76.4869 18.69566 80.67635 18.69566 80.67635 15.73133 81.76133 15.73133 81.76133 13.56945 87.65752 13.56945 87.65752 9.24571 91.79096 9.24571 91.79096 7.30847 94.49579 7.30847 94.49579 3.32109 91.79096 3.32109"/><polygon class="cls-1" points="83.09162 .98177 83.09162 3.32109 91.79096 3.32109 91.79096 12.66859 94.64139 12.66859 94.64139 15.23737 99.56034 15.23737 99.56034 20.72376 102.6834 20.72376 102.6834 17.06457 99.75925 17.06457 99.75925 13.26319 96.6889 13.26319 96.6889 10.55835 94.49579 10.55835 94.49579 3.32109 91.79096 3.32109 91.79096 .98177 83.09162 .98177"/><polygon class="cls-10" points="60.83927 10.55835 65.32744 10.55835 65.32744 7.85352 71.39504 7.85352 71.39504 5.5873 77.90126 5.5873 77.90126 3.32109 83.09162 3.32109 83.09162 .98177 91.79096 .98177 91.79096 3.32109 94.49579 3.32109 94.49579 10.55835 96.6889 10.55835 96.6889 13.26319 99.75925 13.26319 99.75925 17.06457 102.6834 17.06457 102.6834 21.22903 60.83927 21.22903 60.83927 10.55835"/><polygon class="cls-9" points="20.80406 17.21422 15.93449 17.21422 15.93449 21.2297 46.89971 21.2297 46.89971 13.57181 39.59536 13.57181 39.59536 14.76961 34.98083 14.76961 34.98083 12.66859 23.06243 12.66859 23.06243 15.24084 20.80406 15.24084 20.80406 17.21422"/><polygon class="cls-9" points="5.05635 17.06692 5.05635 21.2297 10.26005 21.2297 10.26005 18.92249 7.88423 18.92249 7.88423 17.06692 5.05635 17.06692"/><polygon class="cls-7" points="7.88423 17.06692 7.88423 18.92249 10.26005 18.92249 10.26005 21.2297 15.93449 21.2297 15.93449 19.78299 20.80406 19.78299 20.80406 17.80962 23.06243 17.80962 23.06243 15.23737 32.83431 15.23737 32.83431 16.94915 34.98083 16.94915 34.98083 18.69566 39.59536 18.69566 39.59536 16.14059 46.89971 16.14059 46.89971 10.55781 42.41317 10.55781 42.41317 7.85793 36.34563 7.85793 36.34563 5.59003 29.83658 5.59003 29.83658 3.32208 24.64295 3.32208 24.64295 .98551 15.94456 .98551 15.94456 3.32208 13.24468 3.32208 13.24468 10.55781 11.04527 10.55781 11.04527 13.26746 7.98202 13.26746 7.98202 17.06692 7.88423 17.06692"/><polygon class="cls-2" points="15.9477 3.32109 20.36189 3.32109 20.36189 5.51053 29.83739 5.51053 29.83739 9.24571 39.28894 9.24571 39.28894 11.98313 36.68593 11.98313 36.68593 13.56945 33.56573 13.56945 33.56573 15.73133 31.25176 15.73133 31.25176 18.69566 27.0623 18.69566 27.0623 15.73133 25.97732 15.73133 25.97732 13.56945 20.08114 13.56945 20.08114 9.24571 15.9477 9.24571 15.9477 7.30847 13.24287 7.30847 13.24287 3.32109 15.9477 3.32109"/><polygon class="cls-1" points="24.64703 .98177 24.64703 3.32109 15.9477 3.32109 15.9477 12.66859 13.09727 12.66859 13.09727 15.23737 8.17832 15.23737 8.17832 20.72376 5.05526 20.72376 5.05526 17.06457 7.97941 17.06457 7.97941 13.26319 11.04976 13.26319 11.04976 10.55835 13.24287 10.55835 13.24287 3.32109 15.9477 3.32109 15.9477 .98177 24.64703 .98177"/><polygon class="cls-10" points="46.89939 10.55835 42.41122 10.55835 42.41122 7.85352 36.34362 7.85352 36.34362 5.5873 29.83739 5.5873 29.83739 3.32109 24.64703 3.32109 24.64703 .98177 15.9477 .98177 15.9477 3.32109 13.24287 3.32109 13.24287 10.55835 11.04976 10.55835 11.04976 13.26319 7.97941 13.26319 7.97941 17.06457 5.05526 17.06457 5.05526 21.22903 46.89939 21.22903 46.89939 10.55835"/><rect class="cls-4" x=".98177" y="22.00738" width="105.77511" height="17.88998"/><rect class="cls-6" x="103.39836" y="22.00738" width="3.35853" height="17.88998"/><rect class="cls-3" x="7.53221" y="22.00738" width="7.8444" height="17.88998"/><rect class="cls-3" x="97.10873" y="22.00738" width="6.28963" height="17.88998"/><rect class="cls-8" x="19.52566" y="25.34435" width="68.68734" height="14.55301"/><rect class="cls-10" x=".98177" y="22.00738" width="105.77511" height="17.88998"/><rect class="cls-7" x="43.77355" y="22.70152" width="20.19156" height="15.75549" transform="translate(23.29006 84.44859) rotate(-90)"/><rect class="cls-2" x="48.93329" y="22.06478" width="14.39508" height="11.23249" transform="translate(28.4498 83.81185) rotate(-90)"/><rect class="cls-1" x="50.19168" y="29.11966" width="20.19156" height="2.91922" transform="translate(29.7082 90.86673) rotate(-90)"/><rect class="cls-10" x="43.77355" y="22.70152" width="20.19156" height="15.75549" transform="translate(23.29006 84.44859) rotate(-90)"/><rect class="cls-7" x="47.27324" y="9.2135" width="13.19217" height="11.98333"/><rect class="cls-5" x="47.27324" y="17.86099" width="13.19217" height="3.33583"/><rect class="cls-2" x="52.03145" y="9.2135" width="6.59609" height="8.6475"/><rect class="cls-1" x="54.65062" y="9.2135" width="5.63684" height="4.32375"/><rect class="cls-10" x="47.27324" y="9.2135" width="13.19217" height="11.98333"/></svg>