<?xml version="1.0" encoding="UTF-8"?><svg id="Surprise" xmlns="http://www.w3.org/2000/svg" viewBox="0 0 163.45837 98.60944"><defs><style>.cls-1{fill:#eec170;}.cls-2{fill:#e6a527;}.cls-3{fill:#951f3f;}.cls-4{fill:#bc294d;}.cls-5{fill:#d96c18;}.cls-6{fill:#df6179;}.cls-7{fill:#e38526;}.cls-8{fill:#d63b5c;}.cls-9{fill:#da691e;}.cls-10{fill:none;stroke:#000;stroke-miterlimit:10;stroke-width:1.96355px;}</style></defs><rect class="cls-4" x="62.3924" y="29.9683" width="97.60353" height="65.32221"/><rect class="cls-6" x="156.80099" y="29.9683" width="3.19493" height="65.32221"/><rect class="cls-8" x="87.22522" y="33.01729" width="66.2823" height="26.70731"/><rect class="cls-8" x="87.22522" y="69.36493" width="66.2823" height="21.58314"/><rect class="cls-3" x="68.01447" y="29.9683" width="11.32566" height="65.32221"/><rect class="cls-3" x="62.3924" y="59.7246" width="23.22643" height="9.64033"/><rect class="cls-3" x="62.3924" y="29.9683" width="23.22643" height="3.04899" transform="translate(148.01122 62.98559) rotate(180)"/><rect class="cls-10" x="62.3924" y="29.9683" width="97.60353" height="65.32221"/><rect class="cls-7" x="77.75332" y="57.91176" width="66.88168" height="12.55013" transform="translate(175.38098 -47.00734) rotate(90)"/><rect class="cls-5" x="105.80087" y="85.9593" width="10.78659" height="12.55013" transform="translate(203.42853 -18.95979) rotate(90)"/><rect class="cls-2" x="107.09355" y="70.11079" width="11.12154" height="9.62981" transform="translate(187.58002 -37.72862) rotate(90)"/><rect class="cls-2" x="102.1246" y="41.73448" width="21.05944" height="9.62981" transform="translate(159.2037 -66.10494) rotate(90)"/><rect class="cls-1" x="82.71185" y="62.87029" width="66.88168" height="2.63307" transform="translate(180.33951 -51.96587) rotate(90)"/><rect class="cls-10" x="77.75332" y="57.91176" width="66.88168" height="12.55013" transform="translate(175.38098 -47.00734) rotate(90)"/><rect class="cls-7" x="59.91172" y="52.65185" width="102.56487" height="12.55013"/><rect class="cls-5" x="66.03125" y="52.65185" width="16.89722" height="12.55013"/><rect class="cls-2" x="90.11121" y="52.65185" width="66.68978" height="8.8545"/><rect class="cls-1" x="59.91172" y="52.65185" width="102.49073" height="2.56862"/><rect class="cls-10" x="59.91172" y="52.65185" width="102.56487" height="12.55013"/><polygon class="cls-9" points="58.43376 15.9678 61.47853 12.16754 64.61226 14.67829 45.25076 38.8439 39.27445 34.05567 43.84161 28.35528 44.77639 29.10422 47.6617 25.50298 46.02204 24.18929 53.47422 14.88804 55.48163 16.49637 56.89371 14.73392 58.43376 15.9678"/><polygon class="cls-9" points="68.16532 3.58602 71.414 6.18886 68.16031 10.24988 66.35974 8.80726 67.84525 6.95315 66.39715 5.79292 68.16532 3.58602"/><polygon class="cls-7" points="66.39715 5.79292 67.84525 6.95315 66.35974 8.80726 68.16031 10.24988 64.61226 14.67829 63.48324 13.77371 60.43846 17.57397 58.89842 16.34009 57.48633 18.10254 55.47892 16.49421 49.36889 24.1203 50.70478 25.19061 49.36264 26.86578 50.72563 27.95781 47.84032 31.55905 45.84632 29.96145 41.27915 35.66184 36.92229 32.17112 39.72757 28.66978 37.62056 26.98163 41.41439 22.24645 39.64449 20.82841 43.71438 15.74868 41.94444 14.3306 45.19184 10.27743 43.36836 8.81645 48.80717 2.02813 50.63066 3.48911 52.3188 1.38209 57.96565 5.90635 59.34087 4.18991 61.45551 5.88416 63.37086 3.49357 66.336 5.86924 66.39715 5.79292"/><polygon class="cls-2" points="50.62792 3.49094 47.86788 6.93583 49.57654 8.30481 43.65183 15.6996 46.5668 18.03508 40.65707 25.41118 42.79339 27.12279 44.42096 25.09138 45.65895 26.08325 47.6099 23.64821 49.29705 24.99996 50.7439 23.19411 53.0573 25.0476 55.67682 21.7781 53.36343 19.92461 54.04183 19.07788 52.35468 17.72613 56.04137 13.12468 52.66706 10.42119 55.25156 7.19541 53.73972 5.98412 55.43096 3.87323 52.31916 1.38006 50.62792 3.49094"/><polygon class="cls-1" points="43.36289 8.81731 45.18852 10.28 50.62792 3.49094 57.92282 9.33562 59.7051 7.11111 61.7098 8.71728 64.78546 4.87848 69.0671 8.30893 71.01984 5.87166 68.16417 3.58369 66.3358 5.86573 63.36915 3.48885 61.44937 5.88499 59.33848 4.19375 57.96721 5.90527 52.31916 1.38006 50.62792 3.49094 48.80229 2.02825 43.36289 8.81731"/><polygon class="cls-10" points="36.92292 32.17121 39.72922 28.66859 37.61833 26.97735 41.4122 22.24212 39.64362 20.82513 43.71174 15.7476 41.94317 14.33062 45.18852 10.28 43.36289 8.81731 48.80229 2.02825 50.62792 3.49094 52.31916 1.38006 57.96721 5.90527 59.33848 4.19375 61.44937 5.88499 63.36915 3.48885 66.3358 5.86573 68.16417 3.58369 71.41416 6.18759 45.25044 38.84323 36.92292 32.17121"/><polygon class="cls-9" points="17.08456 67.57683 14.03978 71.37709 17.17351 73.88784 36.53502 49.72223 30.55872 44.93401 25.99155 50.63441 26.92633 51.38335 24.04101 54.98458 22.40136 53.67089 14.94918 62.97215 16.95659 64.58049 15.54451 66.34294 17.08456 67.57683"/><polygon class="cls-9" points="7.1231 79.77443 10.37178 82.37727 13.62547 78.31625 11.8249 76.87363 10.33938 78.72774 8.89127 77.56752 7.1231 79.77443"/><polygon class="cls-7" points="8.89127 77.56752 10.33938 78.72774 11.8249 76.87363 13.62547 78.31625 17.17351 73.88784 16.04449 72.98326 19.08926 69.183 17.54921 67.94911 18.9613 66.18666 16.95389 64.57832 23.06392 56.95223 24.39981 58.02254 25.74195 56.34738 27.10495 57.43941 29.99026 53.83818 27.99626 52.24058 32.56342 46.54018 28.20656 43.04946 25.40128 46.55081 23.29426 44.86266 19.50043 49.59784 17.73054 48.1798 13.66065 53.25954 11.89071 51.84146 8.6433 55.89463 6.81982 54.43365 1.38101 61.22197 3.20449 62.68295 1.51635 64.78997 7.1632 69.31423 5.78799 71.03067 7.90263 72.72492 5.98728 75.11552 8.95242 77.4912 8.89127 77.56752"/><polygon class="cls-2" points="3.20569 62.67988 5.96573 59.235 7.67439 60.60398 13.5991 53.20919 16.51408 55.54467 22.42382 48.16858 24.56013 49.8802 22.93256 51.91161 24.17055 52.90349 22.21959 55.33853 23.90674 56.69028 22.45989 58.49613 24.77329 60.34962 22.15376 63.61912 19.84037 61.76563 19.16196 62.61236 17.47481 61.26061 13.78813 65.86206 10.41382 63.15857 7.82933 66.38435 6.31749 65.17306 4.62624 67.28394 1.51445 64.79077 3.20569 62.67988"/><polygon class="cls-1" points="6.81946 54.42813 8.64509 55.89083 3.20569 62.67988 10.50059 68.52456 8.71831 70.74907 10.72301 72.35524 7.64736 76.19405 11.929 79.6245 9.97625 82.06177 7.12058 79.77381 8.94895 77.49177 5.9823 75.11489 7.90209 72.71875 5.79121 71.02751 7.16249 69.31598 1.51445 64.79077 3.20569 62.67988 1.38006 61.21719 6.81946 54.42813"/><polygon class="cls-10" points="28.20678 43.05005 25.40048 46.55267 23.28959 44.86143 19.49572 49.59665 17.72715 48.17967 13.65902 53.2572 11.89044 51.84021 8.64509 55.89083 6.81946 54.42813 1.38006 61.21719 3.20569 62.67988 1.51445 64.79077 7.16249 69.31598 5.79121 71.02751 7.90209 72.71875 5.9823 75.11489 8.94895 77.49177 7.12058 79.77381 10.37057 82.3777 36.5343 49.72207 28.20678 43.05005"/><rect class="cls-4" x="-4.40698" y="41.41734" width="105.77511" height="17.88998" transform="translate(-21.13603 56.70725) rotate(-51.29826)"/><rect class="cls-6" x="78.82013" y="1.4538" width="3.35853" height="17.88998" transform="translate(22.0505 66.71942) rotate(-51.29826)"/><rect class="cls-3" x="18.03776" y="74.51842" width="7.8444" height="17.88998" transform="translate(-56.90667 48.41435) rotate(-51.29826)"/><rect class="cls-3" x="74.33825" y="5.21856" width="6.28963" height="17.88998" transform="translate(17.98211 65.77623) rotate(-51.29826)"/><rect class="cls-8" x="15.43901" y="44.12907" width="68.68734" height="14.55301" transform="translate(-21.46225 58.11437) rotate(-51.29826)"/><rect class="cls-10" x="-4.40698" y="41.41734" width="105.77511" height="17.88998" transform="translate(-21.13603 56.70725) rotate(-51.29826)"/><rect class="cls-7" x="38.09361" y="42.25129" width="20.19156" height="15.75549" transform="translate(54.45295 119.38151) rotate(-141.29826)"/><rect class="cls-2" x="40.14407" y="40.93571" width="14.39508" height="11.23249" transform="translate(55.18018 112.48276) rotate(-141.29826)"/><rect class="cls-1" x="42.10666" y="43.66064" width="20.19156" height="2.91922" transform="translate(64.72965 112.97303) rotate(-141.29826)"/><rect class="cls-10" x="38.09361" y="42.25129" width="20.19156" height="15.75549" transform="translate(54.45295 119.38151) rotate(-141.29826)"/><rect class="cls-7" x="29.59518" y="34.52446" width="13.19217" height="11.98333" transform="translate(-18.05716 43.42683) rotate(-51.29826)"/><rect class="cls-5" x="32.96948" y="41.5517" width="13.19217" height="3.33583" transform="translate(-18.90253 47.07327) rotate(-51.29826)"/><rect class="cls-2" x="32.50455" y="34.00996" width="6.59609" height="8.6475" transform="translate(-16.49962 42.30568) rotate(-51.29826)"/><rect class="cls-1" x="32.63482" y="33.15035" width="5.63684" height="4.32375" transform="translate(-14.27254 40.90079) rotate(-51.29826)"/><rect class="cls-10" x="29.59518" y="34.52446" width="13.19217" height="11.98333" transform="translate(-18.05716 43.42683) rotate(-51.29826)"/></svg>