<svg width="350" height="65" viewBox="0 0 350 65" fill="none" xmlns="http://www.w3.org/2000/svg">
<rect y="11" width="4.22961" height="43" rx="2" fill="white"/>
<rect x="8.45923" y="25" width="4.22961" height="15" rx="2" fill="white"/>
<rect x="17.9758" y="17" width="4.22961" height="31" rx="2" fill="white"/>
<rect x="26.4351" y="7" width="4.22961" height="51" rx="2" fill="white"/>
<rect x="35.9517" y="11" width="4.22961" height="43" rx="2" fill="white"/>
<rect x="44.4109" width="4.22961" height="65" rx="2" fill="white"/>
<rect x="52.8701" y="11" width="4.22961" height="43" rx="2" fill="white"/>
<rect x="62.3867" y="25" width="4.22961" height="15" rx="2" fill="white"/>
<rect x="70.8459" y="17" width="4.22961" height="31" rx="2" fill="white"/>
<rect x="79.3051" y="25" width="4.22961" height="15" rx="2" fill="white"/>
<rect x="88.8217" y="11" width="4.22961" height="43" rx="2" fill="white"/>
<rect x="97.2809" y="7" width="4.22961" height="51" rx="2" fill="white"/>
<rect x="106.798" y="11" width="4.22961" height="43" rx="2" fill="white"/>
<rect x="115.257" y="17" width="4.22961" height="31" rx="2" fill="white"/>
<rect x="123.716" y="7" width="4.22961" height="51" rx="2" fill="white"/>
<rect x="133.233" y="11" width="4.22961" height="43" rx="2" fill="white"/>
<rect x="141.692" y="17" width="4.22961" height="31" rx="2" fill="white"/>
<rect x="150.151" y="25" width="4.22961" height="15" rx="2" fill="white"/>
<rect x="159.668" y="7" width="4.22961" height="51" rx="2" fill="white"/>
<rect x="168.127" y="11" width="4.22961" height="43" rx="2" fill="white"/>
<rect x="177.643" width="4.22961" height="65" rx="2" fill="white"/>
<rect x="186.103" y="11" width="4.22961" height="43" rx="2" fill="white"/>
<rect x="194.562" y="25" width="4.22961" height="15" rx="2" fill="white"/>
<rect x="204.079" y="17" width="4.22961" height="31" rx="2" fill="white"/>
<rect x="212.538" width="4.22961" height="65" rx="2" fill="white"/>
<rect x="220.997" y="7" width="4.22961" height="51" rx="2" fill="white"/>
<rect x="230.514" y="11" width="4.22961" height="43" rx="2" fill="white"/>
<rect x="238.973" y="11" width="4.22961" height="43" rx="2" fill="white"/>
<rect x="248.489" y="17" width="4.22961" height="31" rx="2" fill="white"/>
<rect x="256.949" y="11" width="4.22961" height="43" rx="2" fill="white"/>
<rect x="265.408" y="17" width="4.22961" height="31" rx="2" fill="white"/>
<rect x="274.924" y="11" width="4.22961" height="43" rx="2" fill="white"/>
<rect x="283.384" width="4.22961" height="65" rx="2" fill="white"/>
<rect x="292.9" y="7" width="4.22961" height="51" rx="2" fill="white"/>
<rect x="301.359" y="25" width="4.22961" height="15" rx="2" fill="white"/>
<rect x="309.819" y="17" width="4.22961" height="31" rx="2" fill="white"/>
<rect x="319.335" width="4.22961" height="65" rx="2" fill="white"/>
<rect x="327.795" y="11" width="4.22961" height="43" rx="2" fill="white"/>
<rect x="336.254" y="25" width="4.22961" height="15" rx="2" fill="white"/>
<rect x="345.77" y="17" width="4.22961" height="31" rx="2" fill="white"/>
</svg>
