<svg width="135" height="128" viewBox="0 0 135 128" fill="none" xmlns="http://www.w3.org/2000/svg">
<rect x="7.94092" y="0.5" width="126.559" height="126.559" stroke="#E4E4E4"/>
<path d="M14.6317 48.5473C14.6317 53.0228 11.7236 56.651 7.31587 56.651C2.90812 56.651 0 53.0228 0 48.5473C0 44.0717 4.65556 41.4565 7.31587 34.7034C9.64365 41.1188 14.6317 44.0717 14.6317 48.5473Z" fill="#D9D9D9"/>
<path d="M14.6317 70.4953C14.6317 74.9708 11.7236 78.599 7.31587 78.599C2.90812 78.599 0 74.9708 0 70.4953C0 66.0197 4.65556 63.4045 7.31587 56.6514C9.64365 63.0668 14.6317 66.0197 14.6317 70.4953Z" fill="#D9D9D9"/>
<path d="M14.6317 92.4426C14.6317 96.9182 11.7236 100.546 7.31587 100.546C2.90812 100.546 0 96.9182 0 92.4426C0 87.9671 4.65556 85.3519 7.31587 78.5988C9.64365 85.0142 14.6317 87.9671 14.6317 92.4426Z" fill="#D9D9D9"/>
<path d="M14.6317 26.5997C14.6317 31.0753 11.7236 34.7035 7.31587 34.7035C2.90812 34.7035 0 31.0753 0 26.5997C0 22.1242 4.65556 19.509 7.31587 12.7559C9.64365 19.1713 14.6317 22.1242 14.6317 26.5997Z" fill="#D9D9D9"/>
<path d="M36.5791 52.2053C36.5791 56.6809 33.671 60.3091 29.2633 60.3091C24.8555 60.3091 21.9474 56.6809 21.9474 52.2053C21.9474 47.7298 26.6029 45.1146 29.2633 38.3615C31.591 44.7769 36.5791 47.7298 36.5791 52.2053Z" fill="#D9D9D9"/>
<path d="M36.5791 74.1531C36.5791 78.6287 33.671 82.2568 29.2633 82.2568C24.8555 82.2568 21.9474 78.6287 21.9474 74.1531C21.9474 69.6775 26.6029 67.0623 29.2633 60.3092C31.591 66.7247 36.5791 69.6775 36.5791 74.1531Z" fill="#D9D9D9"/>
<path d="M36.5791 96.1006C36.5791 100.576 33.671 104.204 29.2633 104.204C24.8555 104.204 21.9474 100.576 21.9474 96.1006C21.9474 91.625 26.6029 89.0098 29.2633 82.2567C31.591 88.6722 36.5791 91.625 36.5791 96.1006Z" fill="#D9D9D9"/>
<path d="M36.5791 30.2577C36.5791 34.7333 33.671 38.3614 29.2633 38.3614C24.8555 38.3614 21.9474 34.7333 21.9474 30.2577C21.9474 25.7821 26.6029 23.1669 29.2633 16.4138C31.591 22.8293 36.5791 25.7821 36.5791 30.2577Z" fill="#D9D9D9"/>
<path d="M58.5271 55.8633C58.5271 60.3389 55.619 63.967 51.2113 63.967C46.8035 63.967 43.8954 60.3389 43.8954 55.8633C43.8954 51.3877 48.5509 48.7725 51.2113 42.0194C53.539 48.4349 58.5271 51.3877 58.5271 55.8633Z" fill="#D9D9D9"/>
<path d="M58.5271 77.811C58.5271 82.2866 55.619 85.9148 51.2113 85.9148C46.8035 85.9148 43.8954 82.2866 43.8954 77.811C43.8954 73.3355 48.5509 70.7203 51.2113 63.9672C53.539 70.3826 58.5271 73.3355 58.5271 77.811Z" fill="#D9D9D9"/>
<path d="M58.5271 99.7586C58.5271 104.234 55.619 107.862 51.2113 107.862C46.8035 107.862 43.8954 104.234 43.8954 99.7586C43.8954 95.283 48.5509 92.6678 51.2113 85.9147C53.539 92.3301 58.5271 95.283 58.5271 99.7586Z" fill="#D9D9D9"/>
<path d="M58.5271 33.9158C58.5271 38.3914 55.619 42.0195 51.2113 42.0195C46.8035 42.0195 43.8954 38.3914 43.8954 33.9158C43.8954 29.4402 48.5509 26.825 51.2113 20.0719C53.539 26.4874 58.5271 29.4402 58.5271 33.9158Z" fill="#D9D9D9"/>
<path d="M80.4745 59.5211C80.4745 63.9967 77.5664 67.6249 73.1586 67.6249C68.7509 67.6249 65.8428 63.9967 65.8428 59.5211C65.8428 55.0456 70.4983 52.4304 73.1586 45.6772C75.4864 52.0927 80.4745 55.0456 80.4745 59.5211Z" fill="#D9D9D9"/>
<path d="M80.4745 81.4688C80.4745 85.9443 77.5664 89.5725 73.1586 89.5725C68.7509 89.5725 65.8428 85.9443 65.8428 81.4688C65.8428 76.9932 70.4983 74.378 73.1586 67.6249C75.4864 74.0403 80.4745 76.9932 80.4745 81.4688Z" fill="#D9D9D9"/>
<path d="M80.4745 103.417C80.4745 107.892 77.5664 111.52 73.1586 111.52C68.7509 111.52 65.8428 107.892 65.8428 103.417C65.8428 98.9409 70.4983 96.3257 73.1586 89.5726C75.4864 95.9881 80.4745 98.9409 80.4745 103.417Z" fill="#D9D9D9"/>
<path d="M80.4745 37.5737C80.4745 42.0493 77.5664 45.6775 73.1586 45.6775C68.7509 45.6775 65.8428 42.0493 65.8428 37.5737C65.8428 33.0982 70.4983 30.483 73.1586 23.7299C75.4864 30.1453 80.4745 33.0982 80.4745 37.5737Z" fill="#D9D9D9"/>
<path d="M102.422 63.1792C102.422 67.6548 99.5143 71.2829 95.1065 71.2829C90.6988 71.2829 87.7906 67.6548 87.7906 63.1792C87.7906 58.7036 92.4462 56.0884 95.1065 49.3353C97.4343 55.7508 102.422 58.7036 102.422 63.1792Z" fill="#D9D9D9"/>
<path d="M102.422 85.1266C102.422 89.6022 99.5143 93.2303 95.1065 93.2303C90.6988 93.2303 87.7906 89.6022 87.7906 85.1266C87.7906 80.651 92.4462 78.0358 95.1065 71.2827C97.4343 77.6982 102.422 80.651 102.422 85.1266Z" fill="#D9D9D9"/>
<path d="M102.422 107.074C102.422 111.55 99.5143 115.178 95.1065 115.178C90.6988 115.178 87.7906 111.55 87.7906 107.074C87.7906 102.599 92.4462 99.9836 95.1065 93.2305C97.4343 99.6459 102.422 102.599 102.422 107.074Z" fill="#D9D9D9"/>
<path d="M102.422 41.2316C102.422 45.7072 99.5143 49.3353 95.1065 49.3353C90.6988 49.3353 87.7906 45.7072 87.7906 41.2316C87.7906 36.756 92.4462 34.1408 95.1065 27.3877C97.4343 33.8032 102.422 36.756 102.422 41.2316Z" fill="#D9D9D9"/>
<path d="M124.37 66.837C124.37 71.3126 121.462 74.9408 117.054 74.9408C112.646 74.9408 109.738 71.3126 109.738 66.837C109.738 62.3615 114.394 59.7463 117.054 52.9932C119.382 59.4086 124.37 62.3615 124.37 66.837Z" fill="#D9D9D9"/>
<path d="M124.37 88.7846C124.37 93.2601 121.462 96.8883 117.054 96.8883C112.646 96.8883 109.738 93.2601 109.738 88.7846C109.738 84.309 114.394 81.6938 117.054 74.9407C119.382 81.3561 124.37 84.309 124.37 88.7846Z" fill="#D9D9D9"/>
<path d="M124.37 110.733C124.37 115.208 121.462 118.836 117.054 118.836C112.646 118.836 109.738 115.208 109.738 110.733C109.738 106.257 114.394 103.642 117.054 96.8887C119.382 103.304 124.37 106.257 124.37 110.733Z" fill="#D9D9D9"/>
<path d="M124.37 44.8893C124.37 49.3649 121.462 52.993 117.054 52.993C112.646 52.993 109.738 49.3649 109.738 44.8893C109.738 40.4137 114.394 37.7985 117.054 31.0454C119.382 37.4609 124.37 40.4137 124.37 44.8893Z" fill="#D9D9D9"/>
</svg>
