<?xml version="1.0" encoding="UTF-8"?><svg id="shyness" xmlns="http://www.w3.org/2000/svg" viewBox="0 0 114.03773 159.47153"><path d="m42.59368,8.54598c13.92049-11.60393,36.6247-11.58319,49.92274,1.24252,15.08807,14.04445,9.59515,37.28709-4.47101,49.86408-8.23657,7.25079-19.56652,11.9574-30.70437,9.8958-7.89735-1.70142-13.73304-8.53307-17.05011-15.42208-6.28237-12.7611-3.18061-27.72475,5.66545-38.39425,2.73033-3.42448,5.84275-6.44291,9.14341-9.15629,1.00305-.82465,2.48462-.67993,3.3092.32312.77295.94019.69434,2.3009-.14478,3.14685-11.1248,10.60579-18.84657,26.26485-11.16056,40.70938,2.10851,3.93353,4.96965,7.52897,8.708,9.7223.3344.21107.67119.28334.99846.44417.30195.14863.70902.31084,1.04542.36855,8.47413,2.14601,18.21514-2.25118,24.5708-7.88842,5.46564-4.82224,9.28999-11.77695,10.62346-18.8487,2.2391-11.16339-4.75235-21.20449-14.94103-25.34709-10.48749-4.50591-22.9772-3.11271-32.513,3.36565-2.65884,1.73266-5.40655-1.97536-3.00208-4.0256h0Z"/><path d="m78.61382,100.85738c-25.63664-4.33321-53.16507-21.61955-56.11959-49.52603-.00004.00009,5.97933,2.05863,5.97933,2.05863-5.25763,6.19133-9.11746,13.67968-12.0644,21.22847-4.10005,10.60762-6.43052,22.15617-7.15086,33.52561-.04716,2.28286-.27643,5.56931-.32166,7.84155-.00584,1.07199.21975,6.67911.22592,7.86069.04627,3.66757.78431,8.84424,1.08275,12.54571.61228,4.16118,1.37986,8.30577,2.05466,12.45409.00196-.00141-7.62843-3.18055-7.61829-3.1828,21.31678-15.09777,48.81949-32.71763,68.89364-48.90996-.00032-.00045.23588-.24233.23588-.24233,0,0,.12122-.11798.12122-.11798l.0614-.05841.03101-.02899c-.12995.12225-.22756.28182-.27759.45642,1.01178-2.17629,3.68939-3.64139,6.25529-2.67798,1.33977.45968,2.47056,1.63958,2.95478,2.89736.37665.90265.51936,2.13965.57312,2.90458.41108,13.06372-.71723,26.49253-1.32257,39.47864-.14851,3.27129-.39874,6.63578-.43072,9.70056-.04454-.19843-.07881-.40843-.18324-.6578.47513,1.33399,1.20117,2.80935,1.96291,3.94219.14615.23152.28953.36699.33717.46268-.00233.0061.00011.01825-.063-.0274-.16504-.08696-.39586-.17423-.59742-.19857,1.88697.41934,3.07667,2.28897,2.65736,4.17593-.71766,2.99707-4.17459,3.45911-6.3391,1.62626-2.28867-1.84547-3.6022-4.30886-4.82856-6.85033-.11549-.24281-.32349-.77733-.35794-.99674-.5098-3.83095-.2724-7.71219-.3245-11.41438.05616-6.10537.19399-21.55343.24379-27.43964.02679-3.54532-.03791-8.74056-.30773-11.32929,1.16453,3.538,6.23075,4.09339,8.20653.99912,0,.00008.13025-.21629.13025-.21629,0,0,.06873-.12952.06873-.12952.01746-.03503.01953-.04126-.00635.00623-.33139.58133-.70641,1.1579-1.14672,1.66529-.41485.45327-1.00399,1.06165-1.46508,1.47429-22.07653,18.19052-45.95214,33.68239-69.55392,49.69902-2.20759,1.63474-5.37896,1.11392-6.88408-1.20545-.3993-.6091-.64356-1.29874-.73865-1.97513-.60071-4.40393-1.28333-8.79077-1.80298-13.19885-.22802-3.97089-.82155-9.40615-.77939-13.3225.00543-1.28596-.00954-7.21555-.00392-8.35292.04801-1.09685.26826-3.86974.3381-5.01069.06123-1.12096.28826-3.92525.35252-5.00567.11205-1.11502,1.00873-7.06855,1.16087-8.29824,3.19095-17.62389,9.54095-35.44015,21.61829-48.99368,1.95645-2.11577,5.75087-.78186,5.98002,2.06166,1.23797,11.8081,8.01719,22.14107,17.41398,29.27869,9.41948,7.22292,21.13191,12.13698,32.80427,14.10405,4.57813.8155,3.57659,7.50475-1.05551,6.91983h0Z"/><path d="m73.09673,96.34554c2.24008-3.60095,8.40275-7.75672,11.99895-3.40233,1.16758,1.85106,1.97255,3.96798,2.82555,5.8516,6.66273,15.45589,13.30804,33.51978,19.90092,49.01557.00016-.00006.16325.32392.16325.32392-.00659-.00983.04224.07886-.01001-.01172-.10598-.17571-.24662-.33365-.40918-.46027-.05432-.04242-.11084-.08118-.16858-.11578-.00734-.00509.02795.01757.03271.02198,1.26934.76598,2.99529,1.32049,4.5482,1.83523,3.67117,1.25609,2.02877,6.73038-1.74983,5.72424-2.16602-.66743-4.38061-1.24788-6.43364-2.58089-.66034-.45296-1.13881-1.24883-1.50153-1.94341-6.52094-13.88658-12.95616-30.77248-18.95903-44.83088-1.12348-2.5792-2.66312-6.38571-3.95536-8.78441.21661.36821,1.05795,1.04571,1.71587,1.08194.11548.00173.14978.00637.18286.00851-.79775.1355-3.04126,1.56073-3.9273,2.25533-2.61348,1.87572-5.94048-1.3073-4.25385-3.98861h0Z"/></svg>