<?xml version="1.0" encoding="UTF-8"?><svg id="shyness" xmlns="http://www.w3.org/2000/svg" viewBox="0 0 100 100"><defs><style>.cls-1{stroke-width:3px;}.cls-1,.cls-2{fill:none;stroke:#000;stroke-linecap:round;stroke-miterlimit:10;}.cls-2{stroke-width:2px;}</style></defs><path d="m47.68378,11.81368c23.25658-.78463,45.9506,16.60479,45.00276,41.1254-.91299,31.43063-35.24385,51.16094-62.90651,36.13058-10.22901-5.4587-17.98472-15.25025-21.00932-26.4308C3.92501,44.61804,11.18956,23.85173,26.80388,13.45751c.00002-.00003,3.65907-2.2048,3.65907-2.2048,2.35601-1.16764,5.35086-2.47002,7.85149-3.22362,5.39985-1.65986,11.00874-2.28022,16.54426-2.23304,1.27783.01093,2.30493,1.05566,2.29407,2.33356-.0105,1.23651-.98901,2.23822-2.21008,2.29193-6.41536.25421-12.6636,1.42823-18.46789,3.99424-17.41727,7.77325-26.22774,28.26871-21.2123,46.42591,3.80303,14.21211,16.96945,25.17826,31.66333,26.20805,20.34986,1.9739,38.50698-13.9846,39.4299-34.36921,1.14703-15.24483-9.91669-28.64112-23.83538-33.74927-4.71556-1.79037-9.75696-2.79615-14.84598-2.95179-2.67093-.13401-2.65571-4.03958.0094-4.16577h0Z"/><circle cx="34.96978" cy="49.61035" r="5.37691"/><circle cx="70.04675" cy="49.61035" r="5.37691"/><line class="cls-2" x1="74.46106" y1="56.34232" x2="70.99255" y2="63.71292"/><line class="cls-2" x1="80.77341" y1="56.34232" x2="77.30489" y2="63.71292"/><line class="cls-2" x1="22.13902" y1="56.34232" x2="18.67051" y2="63.71292"/><line class="cls-2" x1="28.45137" y1="56.34232" x2="24.98285" y2="63.71292"/><path class="cls-1" d="m55.03416,64.90006c0,1.1549-1.83098,2.30981-3.31061,2.30981-1.29755,0-3.31061-1.1549-3.31061-2.30981"/></svg>